<svg xmlns="http://www.w3.org/2000/svg" width="162" height="23.529" viewBox="0 0 162 23.529">
  <g id="borrowercentral-clogo" transform="translate(-102 -35.784)">
    <g id="Group_1568" data-name="Group 1568" transform="translate(127.602 41.494)">
      <path id="Path_303" data-name="Path 303" d="M71.7,35.061V21.6h.964v5.749a3.216,3.216,0,0,1,1.357-1.607,4.751,4.751,0,0,1,2.5-.679,4.666,4.666,0,0,1,3.463,1.464,5.189,5.189,0,0,1,1.428,3.645,5.067,5.067,0,0,1-1.428,3.645,4.537,4.537,0,0,1-3.463,1.464,4.824,4.824,0,0,1-2.5-.643,3.216,3.216,0,0,1-1.357-1.607v2.035H71.7ZM79.341,33.2a4.508,4.508,0,0,0,0-6,3.6,3.6,0,0,0-2.785-1.214,3.719,3.719,0,0,0-2.821,1.178,4.181,4.181,0,0,0-1.142,3A4.267,4.267,0,0,0,73.735,33.2a3.923,3.923,0,0,0,5.606,0Z" transform="translate(-71.7 -21.347)" fill="#4362ad"/>
      <path id="Path_304" data-name="Path 304" d="M103,36.505a5,5,0,0,1,5.106-5.106,5.069,5.069,0,0,1,3.645,1.464,4.958,4.958,0,0,1,1.5,3.645,5.061,5.061,0,0,1-5.142,5.106,4.952,4.952,0,0,1-3.645-1.464A5.069,5.069,0,0,1,103,36.505Zm.964,0a4.12,4.12,0,0,0,1.178,3,4.038,4.038,0,0,0,2.964,1.178,4.1,4.1,0,0,0,2.964-1.178,4.178,4.178,0,0,0,1.178-3,4.12,4.12,0,0,0-1.178-3,4.224,4.224,0,0,0-5.927,0A4.063,4.063,0,0,0,103.963,36.505Z" transform="translate(-91.824 -27.648)" fill="#4362ad"/>
      <path id="Path_305" data-name="Path 305" d="M137,41.488V31.74h.964V33.7a3.088,3.088,0,0,1,3.285-2.106,1.611,1.611,0,0,1,.464.036v1a2.9,2.9,0,0,0-.607-.036,2.765,2.765,0,0,0-2.321,1.036,4,4,0,0,0-.821,2.535v5.32Z" transform="translate(-113.684 -27.775)" fill="#4362ad"/>
      <path id="Path_306" data-name="Path 306" d="M155.6,41.488V31.74h.964V33.7a3.088,3.088,0,0,1,3.285-2.106,1.611,1.611,0,0,1,.464.036v1a2.9,2.9,0,0,0-.607-.036,2.765,2.765,0,0,0-2.321,1.036,4,4,0,0,0-.821,2.535v5.32Z" transform="translate(-125.643 -27.775)" fill="#4362ad"/>
      <path id="Path_307" data-name="Path 307" d="M170.1,36.505a5,5,0,0,1,5.106-5.106,5.069,5.069,0,0,1,3.645,1.464,4.9,4.9,0,0,1,1.5,3.645,5.061,5.061,0,0,1-5.142,5.106,4.952,4.952,0,0,1-3.645-1.464,5.069,5.069,0,0,1-1.464-3.645Zm.964,0a4.12,4.12,0,0,0,1.178,3,4.038,4.038,0,0,0,2.964,1.178,4.1,4.1,0,0,0,2.964-1.178,4.178,4.178,0,0,0,1.178-3,4.12,4.12,0,0,0-1.178-3,4.224,4.224,0,0,0-5.927,0A4.063,4.063,0,0,0,171.063,36.505Z" transform="translate(-134.964 -27.648)" fill="#4362ad"/>
      <path id="Path_308" data-name="Path 308" d="M203.985,41.346,200.2,31.1h1l2.821,7.713,3.106-8.215,3.07,8.212L213.02,31.1h1l-3.785,10.212L207.128,33.1Z" transform="translate(-154.317 -27.134)" fill="#4362ad"/>
      <path id="Path_309" data-name="Path 309" d="M240.6,36.5a5.042,5.042,0,0,1,1.357-3.677,4.425,4.425,0,0,1,3.393-1.428,4.192,4.192,0,0,1,3.214,1.393,4.865,4.865,0,0,1,1.286,3.428,2.2,2.2,0,0,1-.036.5h-8.286a4.116,4.116,0,0,0,1.107,2.857,3.633,3.633,0,0,0,2.749,1.107,4.694,4.694,0,0,0,3.645-1.5v1.136a5.157,5.157,0,0,1-3.645,1.285,4.683,4.683,0,0,1-3.463-1.393,5.054,5.054,0,0,1-1.32-3.677V36.5Zm8.248-.644a3.537,3.537,0,0,0-1.036-2.5,3.372,3.372,0,0,0-2.464-1.036,3.64,3.64,0,0,0-2.607,1.036,3.559,3.559,0,0,0-1.142,2.5Z" transform="translate(-180.289 -27.647)" fill="#4362ad"/>
      <path id="Path_310" data-name="Path 310" d="M272,41.488V31.74h.964V33.7a3.088,3.088,0,0,1,3.285-2.106,1.611,1.611,0,0,1,.464.036v1a2.9,2.9,0,0,0-.607-.036,2.765,2.765,0,0,0-2.321,1.036,4,4,0,0,0-.821,2.535v5.32Z" transform="translate(-200.48 -27.775)" fill="#4362ad"/>
      <path id="Path_311" data-name="Path 311" d="M301.21,22.327v1.178a5.873,5.873,0,0,0-4.249-1.643,5.732,5.732,0,0,0-4.249,1.714A5.813,5.813,0,0,0,291,27.861a5.856,5.856,0,0,0,5.963,6,5.931,5.931,0,0,0,4.249-1.643v1.214a6.542,6.542,0,0,1-4.249,1.393A6.831,6.831,0,0,1,290,27.861a6.728,6.728,0,0,1,2-4.964,6.844,6.844,0,0,1,4.964-2A6.769,6.769,0,0,1,301.21,22.327Z" transform="translate(-212.052 -20.896)" fill="#4362ad"/>
      <path id="Path_312" data-name="Path 312" d="M326.3,36.5a5.042,5.042,0,0,1,1.357-3.677,4.425,4.425,0,0,1,3.393-1.428,4.192,4.192,0,0,1,3.214,1.393,4.865,4.865,0,0,1,1.285,3.428,2.193,2.193,0,0,1-.036.5h-8.285a4.115,4.115,0,0,0,1.107,2.857,3.633,3.633,0,0,0,2.749,1.107,4.694,4.694,0,0,0,3.645-1.5v1.136a5.157,5.157,0,0,1-3.645,1.285,4.683,4.683,0,0,1-3.463-1.393,5.054,5.054,0,0,1-1.32-3.677V36.5Zm8.212-.644a3.538,3.538,0,0,0-1.036-2.5,3.372,3.372,0,0,0-2.464-1.036,3.64,3.64,0,0,0-2.607,1.036,3.559,3.559,0,0,0-1.142,2.5Z" transform="translate(-235.388 -27.647)" fill="#4362ad"/>
      <path id="Path_313" data-name="Path 313" d="M357.6,41.427V31.677h.964v1.857a3.3,3.3,0,0,1,3.393-2.035,3.6,3.6,0,0,1,2.714,1.068,3.86,3.86,0,0,1,1.036,2.821v6h-.964V35.6a2.9,2.9,0,0,0-3-3.178c-1.928,0-3.178,1.5-3.178,3.749v5.216H357.6Z" transform="translate(-255.515 -27.711)" fill="#4362ad"/>
      <path id="Path_314" data-name="Path 314" d="M386.614,35.061V26.242H385.4v-.929h1.214V21.6h.964v3.713h2.284v.892h-2.285v8.82h-.964Z" transform="translate(-273.389 -21.347)" fill="#4362ad"/>
      <path id="Path_315" data-name="Path 315" d="M402.6,41.488V31.74h.964V33.7a3.088,3.088,0,0,1,3.285-2.106,1.612,1.612,0,0,1,.464.036v1a2.9,2.9,0,0,0-.607-.036,2.765,2.765,0,0,0-2.321,1.036,4,4,0,0,0-.821,2.535v5.32Z" transform="translate(-284.448 -27.775)" fill="#4362ad"/>
      <path id="Path_316" data-name="Path 316" d="M424.549,31.909a3,3,0,0,1,1.393,1.607V31.481h.964v9.712h-.964V39.158a3,3,0,0,1-1.393,1.607,4.607,4.607,0,0,1-2.464.643,4.8,4.8,0,0,1-3.5-1.464,5.158,5.158,0,0,1-1.393-3.645,5.1,5.1,0,0,1,1.393-3.645,4.56,4.56,0,0,1,3.5-1.464A4.877,4.877,0,0,1,424.549,31.909Zm-5.279,7.463a3.77,3.77,0,0,0,2.821,1.178,3.719,3.719,0,0,0,2.821-1.178,4.267,4.267,0,0,0,1.142-3.035,4.181,4.181,0,0,0-1.142-3,3.771,3.771,0,0,0-2.821-1.178,3.678,3.678,0,0,0-2.821,1.214,4.618,4.618,0,0,0,0,6Z" transform="translate(-293.832 -27.515)" fill="#4362ad"/>
      <path id="Path_317" data-name="Path 317" d="M451,35.061V21.6h.964V35.025H451Z" transform="translate(-315.566 -21.347)" fill="#4362ad"/>
    </g>
    <path id="Path_318" data-name="Path 318" d="M11.141,4.641A10.867,10.867,0,0,0,3.606,7.426V2.784H0V15.46a10.86,10.86,0,1,0,21.709-.5A11.022,11.022,0,0,0,11.141,4.641Zm-.286,14.5a3.53,3.53,0,0,0,3.106-1.822h3.892a7.248,7.248,0,1,1,0-3.645H13.961a3.648,3.648,0,0,0-3.106-1.822,3.645,3.645,0,0,0,0,7.284Z" transform="translate(102 33)" fill="#ffa14b"/>
  </g>
</svg>
